HIERARCHY
ROOT Hips
{
	OFFSET 0.000000 0.000000 0.000000
	CHANNELS 6 Xposition Yposition Zposition Zrotation Xrotation Yrotation
	JOINT Spine
	{
		OFFSET 0.000000 -0.000000 0.073130
		CHANNELS 6 Xposition Yposition Zposition Zrotation Xrotation Yrotation
		JOINT Spine1
		{
			OFFSET 0.000000 -0.000000 0.165477
			CHANNELS 6 Xposition Yposition Zposition Zrotation Xrotation Yrotation
			JOINT Neck
			{
				OFFSET 0.000000 -0.000000 0.183314
				CHANNELS 6 Xposition Yposition Zposition Zrotation Xrotation Yrotation
				JOINT Head
				{
					OFFSET 0.000000 -0.017837 0.138233
					CHANNELS 6 Xposition Yposition Zposition Zrotation Xrotation Yrotation
					End Site
					{
						OFFSET 0.000000 -0.000000 0.178365
					}
				}
			}
			JOINT LeftShoulder
			{
				OFFSET 0.035599 0.003890 0.149571
				CHANNELS 6 Xposition Yposition Zposition Zrotation Xrotation Yrotation
				JOINT LeftArm
				{
					OFFSET 0.103175 0.000000 0.000000
					CHANNELS 6 Xposition Yposition Zposition Zrotation Xrotation Yrotation
					JOINT LeftForeArm
					{
						OFFSET 0.267562 0.000000 0.000000
						CHANNELS 6 Xposition Yposition Zposition Zrotation Xrotation Yrotation
						JOINT LeftHand
						{
							OFFSET 0.239300 0.000000 0.000000
							CHANNELS 6 Xposition Yposition Zposition Zrotation Xrotation Yrotation
							End Site
							{
								OFFSET 0.133774 0.000000 0.000000
							}
						}
					}
				}
			}
			JOINT RightShoulder
			{
				OFFSET -0.035671 0.003890 0.149571
				CHANNELS 6 Xposition Yposition Zposition Zrotation Xrotation Yrotation
				JOINT RightArm
				{
					OFFSET -0.103175 0.000000 0.000000
					CHANNELS 6 Xposition Yposition Zposition Zrotation Xrotation Yrotation
					JOINT RightForeArm
					{
						OFFSET -0.267562 0.000000 0.000000
						CHANNELS 6 Xposition Yposition Zposition Zrotation Xrotation Yrotation
						JOINT RightHand
						{
							OFFSET -0.239300 0.000000 0.000000
							CHANNELS 6 Xposition Yposition Zposition Zrotation Xrotation Yrotation
							End Site
							{
								OFFSET -0.133774 0.000000 0.000000
							}
						}
					}
				}
			}
		}
	}
	JOINT LeftUpLeg
	{
		OFFSET 0.089182 0.000000 0.000000
		CHANNELS 6 Xposition Yposition Zposition Zrotation Xrotation Yrotation
		JOINT LeftLeg
		{
			OFFSET 0.000000 0.000000 -0.464168
			CHANNELS 6 Xposition Yposition Zposition Zrotation Xrotation Yrotation
			JOINT LeftFoot
			{
				OFFSET 0.000000 0.000000 -0.372878
				CHANNELS 6 Xposition Yposition Zposition Zrotation Xrotation Yrotation
				JOINT LeftToeBase
				{
					OFFSET 0.000000 -0.133774 -0.057969
					CHANNELS 6 Xposition Yposition Zposition Zrotation Xrotation Yrotation
					End Site
					{
						OFFSET 0.000000 -0.035673 0.000000
					}
				}
			}
		}
	}
	JOINT RightUpLeg
	{
		OFFSET -0.089182 0.000000 0.000000
		CHANNELS 6 Xposition Yposition Zposition Zrotation Xrotation Yrotation
		JOINT RightLeg
		{
			OFFSET 0.000000 0.000000 -0.464168
			CHANNELS 6 Xposition Yposition Zposition Zrotation Xrotation Yrotation
			JOINT RightFoot
			{
				OFFSET 0.000000 0.000000 -0.372878
				CHANNELS 6 Xposition Yposition Zposition Zrotation Xrotation Yrotation
				JOINT RightToeBase
				{
					OFFSET 0.000000 -0.133774 -0.057969
					CHANNELS 6 Xposition Yposition Zposition Zrotation Xrotation Yrotation
					End Site
					{
						OFFSET 0.000000 -0.035673 0.000000
					}
				}
			}
		}
	}
}
MOTION
Frames: 4
Frame Time: 0.041667
0.002238 0.116543 0.733545 -0.546858 3.147290 1.285809 -0.000000 -0.000000 0.073130 -4.089027 -11.038806 -2.511386 -0.000000 -0.000000 0.165477 -1.674035 10.599543 4.267262 0.000000 -0.000000 0.183314 -17.916107 11.064741 6.784346 -0.000000 -0.017837 0.138233 -18.429940 15.234614 -22.444265 0.035599 0.003890 0.149571 -17.328972 1.863885 1.024563 0.103175 -0.000000 0.000000 -64.492251 43.698075 48.813733 0.267562 0.000000 0.000000 -60.758399 37.369331 -71.919884 0.239300 0.000000 0.000000 -11.172126 -8.300751 -33.453341 -0.035671 0.003890 0.149571 7.685622 -1.657648 2.429390 -0.103175 -0.000000 -0.000000 31.328756 22.686653 -29.767126 -0.267562 -0.000000 0.000000 -2.479875 -11.268874 3.559193 -0.239300 -0.000000 -0.000000 -3.056402 -11.745901 20.903440 0.089182 -0.000000 -0.000000 -14.140314 -13.372831 -38.737893 0.000000 0.000000 -0.464168 15.136937 43.228441 25.678998 0.000000 0.000000 -0.372878 25.652871 -15.550295 8.849722 -0.000000 -0.133774 -0.057969 -0.000000 -0.000000 0.000002 -0.089182 -0.000000 -0.000000 2.186501 -18.332229 34.467501 0.000000 0.000000 -0.464168 1.980294 39.718223 -35.457735 -0.000000 0.000000 -0.372878 -34.114206 -20.865980 -7.700526 -0.000000 -0.133774 -0.057969 -0.000001 0.000000 -0.000001 
0.002161 0.116454 0.733546 -0.545427 3.151847 1.291221 -0.000000 0.000000 0.073130 -4.084858 -11.052049 -2.516526 0.000000 -0.000000 0.165477 -1.673401 10.614520 4.272169 -0.000000 -0.000000 0.183314 -17.914364 11.066186 6.776237 -0.000000 -0.017837 0.138233 -18.429633 15.225248 -22.430522 0.035599 0.003890 0.149571 -17.326257 1.862720 1.021248 0.103175 -0.000000 0.000000 -64.516826 43.706514 48.840384 0.267562 0.000000 0.000000 -60.743823 37.373316 -71.937690 0.239300 0.000000 0.000000 -11.169815 -8.304766 -33.394700 -0.035671 0.003890 0.149571 7.681899 -1.657418 2.418277 -0.103175 0.000000 -0.000000 31.345497 22.702456 -29.772641 -0.267562 0.000000 -0.000000 -2.466068 -11.303112 3.553839 -0.239300 0.000000 0.000000 -3.035082 -11.778514 20.969295 0.089182 0.000000 -0.000000 -14.140640 -13.368611 -38.743989 0.000000 0.000000 -0.464168 15.074024 43.201141 25.713873 -0.000000 0.000000 -0.372878 25.704514 -15.539409 8.882810 0.000000 -0.133774 -0.057969 0.000001 0.000000 0.000000 -0.089182 0.000000 -0.000000 2.180246 -18.335440 34.457266 0.000000 0.000000 -0.464168 1.990362 39.723762 -35.467216 0.000000 0.000000 -0.372878 -34.121429 -20.874433 -7.700620 0.000000 -0.133774 -0.057969 0.000000 0.000001 -0.000001 
0.002070 0.116405 0.733572 -0.537293 3.165282 1.296416 -0.000000 -0.000000 0.073130 -4.085725 -11.062769 -2.508227 0.000000 -0.000000 0.165477 -1.671896 10.611431 4.252452 0.000000 -0.000000 0.183314 -17.912893 11.068965 6.768313 0.000000 -0.017837 0.138233 -18.430733 15.210811 -22.391522 0.035599 0.003890 0.149571 -17.315539 1.873212 1.030629 0.103175 -0.000000 0.000000 -64.575047 43.711981 48.877366 0.267562 -0.000000 0.000000 -60.683178 37.358044 -71.999182 0.239300 -0.000000 0.000000 -11.191206 -8.315474 -33.364856 -0.035671 0.003890 0.149571 7.690326 -1.641490 2.427344 -0.103175 0.000000 -0.000000 31.359932 22.715828 -29.785376 -0.267562 0.000000 -0.000000 -2.485063 -11.292721 3.535015 -0.239300 -0.000000 -0.000000 -3.052203 -11.772754 21.031780 0.089182 -0.000000 -0.000000 -14.148146 -13.377949 -38.751994 0.000000 0.000000 -0.464168 15.080142 43.198990 25.696215 -0.000000 0.000000 -0.372878 25.699504 -15.534652 8.869262 -0.000000 -0.133774 -0.057969 -0.000000 -0.000000 0.000001 -0.089182 -0.000000 -0.000000 2.172957 -18.346735 34.442206 -0.000000 0.000000 -0.464168 1.960167 39.746336 -35.442760 0.000000 0.000000 -0.372878 -34.105634 -20.878445 -7.712767 0.000000 -0.133774 -0.057969 0.000001 0.000001 0.000001 
0.001979 0.116323 0.733574 -0.532789 3.166830 1.295430 -0.000000 0.000000 0.073130 -4.079233 -11.065670 -2.498296 -0.000000 -0.000000 0.165477 -1.669111 10.620273 4.238648 -0.000000 -0.000000 0.183314 -17.908097 11.053787 6.771557 0.000000 -0.017836 0.138233 -18.427097 15.214943 -22.378237 0.035599 0.003890 0.149571 -17.314446 1.867744 1.042850 0.103175 -0.000000 -0.000000 -64.566331 43.712111 48.874095 0.267562 0.000000 0.000000 -60.711578 37.371510 -71.966937 0.239300 0.000000 0.000000 -11.184092 -8.299912 -33.359935 -0.035671 0.003890 0.149571 7.685345 -1.647866 2.438661 -0.103175 0.000000 -0.000000 31.454677 22.806391 -29.849460 -0.267562 0.000000 0.000000 -2.539977 -11.347728 3.551793 -0.239300 -0.000000 0.000000 -3.022819 -11.818978 20.982355 0.089182 0.000000 -0.000000 -14.146638 -13.374601 -38.748479 0.000000 0.000000 -0.464168 15.080907 43.189072 25.683403 -0.000000 0.000000 -0.372878 25.710090 -15.513036 8.921378 -0.000000 -0.133774 -0.057969 0.000001 -0.000003 0.000001 -0.089182 0.000000 0.000000 2.169785 -18.346868 34.433678 0.000000 0.000000 -0.464168 1.919364 39.779899 -35.407796 0.000000 0.000000 -0.372878 -34.079164 -20.868081 -7.667241 0.000000 -0.133774 -0.057969 -0.000001 0.000000 0.000002 
